Track 0: 
control_change channel=10 control=44 value=0 time=1
<meta message set_tempo tempo=500000 time=0>
note_on channel=2 note=50 velocity=127 time=0
note_off channel=2 note=50 velocity=0 time=480
note_on channel=2 note=57 velocity=127 time=0
note_off channel=2 note=57 velocity=0 time=480
note_on channel=2 note=59 velocity=127 time=0
note_off channel=2 note=59 velocity=0 time=480
note_on channel=2 note=48 velocity=127 time=0
note_off channel=2 note=48 velocity=0 time=480
note_on channel=2 note=60 velocity=127 time=0
note_off channel=2 note=60 velocity=0 time=480
note_on channel=2 note=59 velocity=127 time=0
note_off channel=2 note=59 velocity=0 time=480
note_on channel=2 note=57 velocity=127 time=0
note_off channel=2 note=57 velocity=0 time=480
note_on channel=2 note=53 velocity=127 time=0
note_off channel=2 note=53 velocity=0 time=480
note_on channel=2 note=60 velocity=127 time=0
note_off channel=2 note=60 velocity=0 time=480
note_on channel=2 note=53 velocity=127 time=0
note_off channel=2 note=53 velocity=0 time=480
note_on channel=2 note=59 velocity=127 time=0
note_off channel=2 note=59 velocity=0 time=480
note_on channel=2 note=59 velocity=127 time=0
note_off channel=2 note=59 velocity=0 time=480
note_on channel=2 note=57 velocity=127 time=0
note_off channel=2 note=57 velocity=0 time=480
note_on channel=2 note=55 velocity=127 time=0
note_off channel=2 note=55 velocity=0 time=480
note_on channel=2 note=55 velocity=127 time=0
note_off channel=2 note=55 velocity=0 time=480
note_on channel=2 note=57 velocity=127 time=0
note_off channel=2 note=57 velocity=0 time=480
note_on channel=2 note=52 velocity=127 time=0
note_off channel=2 note=52 velocity=0 time=480
note_on channel=2 note=52 velocity=127 time=0
note_off channel=2 note=52 velocity=0 time=480
note_on channel=2 note=53 velocity=127 time=0
note_off channel=2 note=53 velocity=0 time=480
note_on channel=2 note=57 velocity=127 time=0
note_off channel=2 note=57 velocity=0 time=480
control_change channel=10 control=29 value=0 time=1
<meta message end_of_track time=0>
Track 1: 
note_on channel=3 note=57 velocity=127 time=0
note_off channel=3 note=57 velocity=0 time=480
note_on channel=3 note=66 velocity=127 time=0
note_off channel=3 note=66 velocity=0 time=480
note_on channel=3 note=68 velocity=127 time=0
note_off channel=3 note=68 velocity=0 time=480
note_on channel=3 note=57 velocity=127 time=0
note_off channel=3 note=57 velocity=0 time=480
note_on channel=3 note=66 velocity=127 time=0
note_off channel=3 note=66 velocity=0 time=480
note_on channel=3 note=69 velocity=127 time=0
note_off channel=3 note=69 velocity=0 time=480
note_on channel=3 note=59 velocity=127 time=0
note_off channel=3 note=59 velocity=0 time=480
note_on channel=3 note=69 velocity=127 time=0
note_off channel=3 note=69 velocity=0 time=480
note_on channel=3 note=62 velocity=127 time=0
note_off channel=3 note=62 velocity=0 time=480
note_on channel=3 note=68 velocity=127 time=0
note_off channel=3 note=68 velocity=0 time=480
note_on channel=3 note=68 velocity=127 time=0
note_off channel=3 note=68 velocity=0 time=480
note_on channel=3 note=57 velocity=127 time=0
note_off channel=3 note=57 velocity=0 time=480
note_on channel=3 note=57 velocity=127 time=0
note_off channel=3 note=57 velocity=0 time=480
note_on channel=3 note=62 velocity=127 time=0
note_off channel=3 note=62 velocity=0 time=480
note_on channel=3 note=57 velocity=127 time=0
note_off channel=3 note=57 velocity=0 time=480
note_on channel=3 note=61 velocity=127 time=0
note_off channel=3 note=61 velocity=0 time=480
note_on channel=3 note=57 velocity=127 time=0
note_off channel=3 note=57 velocity=0 time=480
note_on channel=3 note=59 velocity=127 time=0
note_off channel=3 note=59 velocity=0 time=480
note_on channel=3 note=64 velocity=127 time=0
note_off channel=3 note=64 velocity=0 time=480
note_on channel=3 note=62 velocity=127 time=0
note_off channel=3 note=62 velocity=0 time=480
<meta message end_of_track time=0>
